<svg xmlns="http://www.w3.org/2000/svg" viewBox="0 0 1200 900" fill="none">
  <!--
    Court filing collage — atmospheric background texture.
    Dialed to ~60% of full visibility: perceptible but not competing with graph.
  -->

  <!-- PAGE 1 — left, slight rotation -->
  <g transform="rotate(-3, 230, 300)">
    <rect x="60" y="80" width="340" height="440" fill="#fff" opacity="0.015" rx="1"/>
    <rect x="60" y="80" width="340" height="1.5" fill="#fff" opacity="0.035"/>
    <rect x="399" y="80" width="1" height="440" fill="#fff" opacity="0.025"/>
    <!-- Header -->
    <rect x="140" y="100" width="180" height="5" fill="#fff" opacity="0.06" rx="1"/>
    <rect x="170" y="114" width="120" height="3.5" fill="#fff" opacity="0.04" rx="1"/>
    <rect x="80" y="128" width="300" height="0.7" fill="#fff" opacity="0.035"/>
    <!-- Body text -->
    <rect x="80" y="142" width="300" height="2" fill="#fff" opacity="0.03" rx="0.5"/>
    <rect x="80" y="151" width="275" height="2" fill="#fff" opacity="0.03" rx="0.5"/>
    <rect x="80" y="160" width="295" height="2" fill="#fff" opacity="0.03" rx="0.5"/>
    <rect x="80" y="169" width="255" height="2" fill="#fff" opacity="0.03" rx="0.5"/>
    <rect x="80" y="178" width="288" height="2" fill="#fff" opacity="0.03" rx="0.5"/>
    <rect x="80" y="187" width="240" height="2" fill="#fff" opacity="0.03" rx="0.5"/>
    <rect x="80" y="196" width="300" height="2" fill="#fff" opacity="0.03" rx="0.5"/>
    <rect x="80" y="205" width="268" height="2" fill="#fff" opacity="0.03" rx="0.5"/>
    <rect x="80" y="214" width="282" height="2" fill="#fff" opacity="0.03" rx="0.5"/>
    <rect x="80" y="223" width="248" height="2" fill="#fff" opacity="0.03" rx="0.5"/>
    <!-- ██ REDACTED ██ -->
    <rect x="80" y="240" width="210" height="12" fill="#fff" opacity="0.12" rx="1"/>
    <!-- Text -->
    <rect x="80" y="262" width="300" height="2" fill="#fff" opacity="0.03" rx="0.5"/>
    <rect x="80" y="271" width="278" height="2" fill="#fff" opacity="0.03" rx="0.5"/>
    <rect x="80" y="280" width="260" height="2" fill="#fff" opacity="0.03" rx="0.5"/>
    <rect x="80" y="289" width="290" height="2" fill="#fff" opacity="0.03" rx="0.5"/>
    <rect x="80" y="298" width="272" height="2" fill="#fff" opacity="0.03" rx="0.5"/>
    <rect x="80" y="307" width="300" height="2" fill="#fff" opacity="0.03" rx="0.5"/>
    <!-- ██ REDACTED ██ -->
    <rect x="150" y="324" width="150" height="12" fill="#fff" opacity="0.12" rx="1"/>
    <!-- Text -->
    <rect x="80" y="346" width="275" height="2" fill="#fff" opacity="0.03" rx="0.5"/>
    <rect x="80" y="355" width="300" height="2" fill="#fff" opacity="0.03" rx="0.5"/>
    <rect x="80" y="364" width="240" height="2" fill="#fff" opacity="0.03" rx="0.5"/>
    <rect x="80" y="373" width="290" height="2" fill="#fff" opacity="0.03" rx="0.5"/>
    <rect x="80" y="382" width="262" height="2" fill="#fff" opacity="0.03" rx="0.5"/>
    <rect x="80" y="391" width="285" height="2" fill="#fff" opacity="0.03" rx="0.5"/>
    <rect x="80" y="400" width="300" height="2" fill="#fff" opacity="0.03" rx="0.5"/>
    <!-- ██ REDACTED ██ -->
    <rect x="80" y="418" width="180" height="12" fill="#fff" opacity="0.12" rx="1"/>
    <rect x="80" y="440" width="290" height="2" fill="#fff" opacity="0.03" rx="0.5"/>
    <rect x="80" y="449" width="270" height="2" fill="#fff" opacity="0.03" rx="0.5"/>
    <!-- FILED stamp -->
    <g transform="rotate(-12, 310, 200)">
      <rect x="268" y="182" width="84" height="30" fill="none" stroke="#ef4444" stroke-width="2" opacity="0.09" rx="2"/>
      <text x="282" y="202" font-family="monospace" font-size="12" fill="#ef4444" opacity="0.10" font-weight="bold">FILED</text>
    </g>
    <line x1="74" y1="80" x2="74" y2="520" stroke="#fff" stroke-width="0.5" opacity="0.025"/>
    <text x="230" y="512" font-family="monospace" font-size="8" fill="#fff" opacity="0.035" text-anchor="middle">- 14 -</text>
  </g>

  <!-- PAGE 2 — center, slight right tilt -->
  <g transform="rotate(2.5, 650, 240)">
    <rect x="460" y="30" width="360" height="450" fill="#fff" opacity="0.012" rx="1"/>
    <rect x="460" y="30" width="360" height="1.5" fill="#fff" opacity="0.03"/>
    <rect x="819" y="30" width="1" height="450" fill="#fff" opacity="0.02"/>
    <rect x="560" y="48" width="160" height="5" fill="#fff" opacity="0.055" rx="1"/>
    <rect x="590" y="62" width="100" height="3.5" fill="#fff" opacity="0.035" rx="1"/>
    <rect x="480" y="76" width="320" height="0.7" fill="#fff" opacity="0.03"/>
    <!-- Text -->
    <rect x="480" y="90" width="320" height="2" fill="#fff" opacity="0.028" rx="0.5"/>
    <rect x="480" y="99" width="295" height="2" fill="#fff" opacity="0.028" rx="0.5"/>
    <rect x="480" y="108" width="310" height="2" fill="#fff" opacity="0.028" rx="0.5"/>
    <rect x="480" y="117" width="270" height="2" fill="#fff" opacity="0.028" rx="0.5"/>
    <rect x="480" y="126" width="320" height="2" fill="#fff" opacity="0.028" rx="0.5"/>
    <rect x="480" y="135" width="280" height="2" fill="#fff" opacity="0.028" rx="0.5"/>
    <rect x="480" y="144" width="305" height="2" fill="#fff" opacity="0.028" rx="0.5"/>
    <rect x="480" y="153" width="260" height="2" fill="#fff" opacity="0.028" rx="0.5"/>
    <!-- ██ REDACTED ██ -->
    <rect x="480" y="170" width="240" height="12" fill="#fff" opacity="0.12" rx="1"/>
    <!-- Text -->
    <rect x="480" y="192" width="320" height="2" fill="#fff" opacity="0.028" rx="0.5"/>
    <rect x="480" y="201" width="290" height="2" fill="#fff" opacity="0.028" rx="0.5"/>
    <rect x="480" y="210" width="310" height="2" fill="#fff" opacity="0.028" rx="0.5"/>
    <rect x="480" y="219" width="275" height="2" fill="#fff" opacity="0.028" rx="0.5"/>
    <rect x="480" y="228" width="300" height="2" fill="#fff" opacity="0.028" rx="0.5"/>
    <rect x="480" y="237" width="320" height="2" fill="#fff" opacity="0.028" rx="0.5"/>
    <rect x="480" y="246" width="265" height="2" fill="#fff" opacity="0.028" rx="0.5"/>
    <!-- ██ REDACTED ██ -->
    <rect x="520" y="264" width="200" height="12" fill="#fff" opacity="0.12" rx="1"/>
    <!-- Text -->
    <rect x="480" y="286" width="300" height="2" fill="#fff" opacity="0.028" rx="0.5"/>
    <rect x="480" y="295" width="320" height="2" fill="#fff" opacity="0.028" rx="0.5"/>
    <rect x="480" y="304" width="280" height="2" fill="#fff" opacity="0.028" rx="0.5"/>
    <rect x="480" y="313" width="310" height="2" fill="#fff" opacity="0.028" rx="0.5"/>
    <rect x="480" y="322" width="260" height="2" fill="#fff" opacity="0.028" rx="0.5"/>
    <rect x="480" y="331" width="295" height="2" fill="#fff" opacity="0.028" rx="0.5"/>
    <!-- ██ REDACTED ██ -->
    <rect x="480" y="348" width="170" height="12" fill="#fff" opacity="0.12" rx="1"/>
    <rect x="480" y="370" width="305" height="2" fill="#fff" opacity="0.028" rx="0.5"/>
    <rect x="480" y="379" width="280" height="2" fill="#fff" opacity="0.028" rx="0.5"/>
    <!-- EXHIBIT A -->
    <g transform="rotate(6, 760, 400)">
      <rect x="708" y="385" width="108" height="26" fill="none" stroke="#fff" stroke-width="1.5" opacity="0.06" rx="2"/>
      <text x="720" y="403" font-family="monospace" font-size="10" fill="#fff" opacity="0.07" font-weight="bold">EXHIBIT A</text>
    </g>
    <rect x="560" y="440" width="180" height="1" fill="#fff" opacity="0.05"/>
    <line x1="474" y1="30" x2="474" y2="480" stroke="#fff" stroke-width="0.5" opacity="0.02"/>
    <text x="640" y="470" font-family="monospace" font-size="8" fill="#fff" opacity="0.035" text-anchor="middle">- 7 -</text>
  </g>

  <!-- PAGE 3 — lower right -->
  <g transform="rotate(-1.5, 900, 620)">
    <rect x="700" y="400" width="360" height="420" fill="#fff" opacity="0.010" rx="1"/>
    <rect x="700" y="400" width="360" height="1.5" fill="#fff" opacity="0.028"/>
    <rect x="1059" y="400" width="1" height="420" fill="#fff" opacity="0.018"/>
    <rect x="790" y="418" width="180" height="5" fill="#fff" opacity="0.05" rx="1"/>
    <rect x="820" y="432" width="120" height="3.5" fill="#fff" opacity="0.035" rx="1"/>
    <rect x="720" y="446" width="320" height="0.7" fill="#fff" opacity="0.025"/>
    <rect x="720" y="458" width="320" height="2" fill="#fff" opacity="0.025" rx="0.5"/>
    <rect x="720" y="467" width="295" height="2" fill="#fff" opacity="0.025" rx="0.5"/>
    <rect x="720" y="476" width="310" height="2" fill="#fff" opacity="0.025" rx="0.5"/>
    <rect x="720" y="485" width="270" height="2" fill="#fff" opacity="0.025" rx="0.5"/>
    <rect x="720" y="494" width="320" height="2" fill="#fff" opacity="0.025" rx="0.5"/>
    <rect x="720" y="503" width="285" height="2" fill="#fff" opacity="0.025" rx="0.5"/>
    <!-- ██ REDACTED ██ -->
    <rect x="720" y="520" width="260" height="12" fill="#fff" opacity="0.10" rx="1"/>
    <rect x="720" y="542" width="300" height="2" fill="#fff" opacity="0.025" rx="0.5"/>
    <rect x="720" y="551" width="280" height="2" fill="#fff" opacity="0.025" rx="0.5"/>
    <rect x="720" y="560" width="310" height="2" fill="#fff" opacity="0.025" rx="0.5"/>
    <rect x="720" y="569" width="260" height="2" fill="#fff" opacity="0.025" rx="0.5"/>
    <rect x="720" y="578" width="295" height="2" fill="#fff" opacity="0.025" rx="0.5"/>
    <rect x="720" y="587" width="320" height="2" fill="#fff" opacity="0.025" rx="0.5"/>
    <!-- ██ REDACTED ██ -->
    <rect x="760" y="604" width="200" height="12" fill="#fff" opacity="0.10" rx="1"/>
    <rect x="720" y="626" width="290" height="2" fill="#fff" opacity="0.025" rx="0.5"/>
    <rect x="720" y="635" width="310" height="2" fill="#fff" opacity="0.025" rx="0.5"/>
    <rect x="720" y="644" width="270" height="2" fill="#fff" opacity="0.025" rx="0.5"/>
    <!-- SEALED stamp -->
    <g transform="rotate(-8, 920, 520)">
      <rect x="872" y="498" width="98" height="30" fill="none" stroke="#ef4444" stroke-width="2" opacity="0.08" rx="2"/>
      <text x="882" y="519" font-family="monospace" font-size="12" fill="#ef4444" opacity="0.09" font-weight="bold">SEALED</text>
    </g>
    <text x="880" y="812" font-family="monospace" font-size="8" fill="#fff" opacity="0.03" text-anchor="middle">- 23 -</text>
  </g>

  <!-- PAGE 4 — upper right corner -->
  <g transform="rotate(3, 1050, 120)">
    <rect x="860" y="-40" width="360" height="400" fill="#fff" opacity="0.008" rx="1"/>
    <rect x="860" y="-40" width="360" height="1.5" fill="#fff" opacity="0.025"/>
    <rect x="940" y="-20" width="200" height="5" fill="#fff" opacity="0.04" rx="1"/>
    <rect x="970" y="-4" width="140" height="3.5" fill="#fff" opacity="0.03" rx="1"/>
    <rect x="880" y="10" width="320" height="0.7" fill="#fff" opacity="0.025"/>
    <rect x="880" y="24" width="320" height="2" fill="#fff" opacity="0.02" rx="0.5"/>
    <rect x="880" y="33" width="290" height="2" fill="#fff" opacity="0.02" rx="0.5"/>
    <rect x="880" y="42" width="310" height="2" fill="#fff" opacity="0.02" rx="0.5"/>
    <rect x="880" y="51" width="270" height="2" fill="#fff" opacity="0.02" rx="0.5"/>
    <rect x="880" y="60" width="300" height="2" fill="#fff" opacity="0.02" rx="0.5"/>
    <rect x="880" y="69" width="280" height="2" fill="#fff" opacity="0.02" rx="0.5"/>
    <rect x="880" y="78" width="320" height="2" fill="#fff" opacity="0.02" rx="0.5"/>
    <!-- ██ REDACTED ██ -->
    <rect x="880" y="96" width="190" height="12" fill="#fff" opacity="0.09" rx="1"/>
    <rect x="880" y="118" width="300" height="2" fill="#fff" opacity="0.02" rx="0.5"/>
    <rect x="880" y="127" width="280" height="2" fill="#fff" opacity="0.02" rx="0.5"/>
    <rect x="880" y="136" width="310" height="2" fill="#fff" opacity="0.02" rx="0.5"/>
    <text x="1100" y="-26" font-family="monospace" font-size="8" fill="#fff" opacity="0.035">08-cv-01302</text>
  </g>

  <!-- PAGE 5 — bottom center -->
  <g transform="rotate(1, 480, 720)">
    <rect x="280" y="540" width="360" height="360" fill="#fff" opacity="0.008" rx="1"/>
    <rect x="280" y="540" width="360" height="1.5" fill="#fff" opacity="0.025"/>
    <rect x="360" y="558" width="200" height="5" fill="#fff" opacity="0.04" rx="1"/>
    <rect x="390" y="572" width="140" height="3.5" fill="#fff" opacity="0.03" rx="1"/>
    <rect x="300" y="586" width="320" height="0.7" fill="#fff" opacity="0.025"/>
    <rect x="300" y="598" width="320" height="2" fill="#fff" opacity="0.02" rx="0.5"/>
    <rect x="300" y="607" width="295" height="2" fill="#fff" opacity="0.02" rx="0.5"/>
    <rect x="300" y="616" width="310" height="2" fill="#fff" opacity="0.02" rx="0.5"/>
    <rect x="300" y="625" width="270" height="2" fill="#fff" opacity="0.02" rx="0.5"/>
    <rect x="300" y="634" width="300" height="2" fill="#fff" opacity="0.02" rx="0.5"/>
    <!-- ██ REDACTED ██ -->
    <rect x="300" y="652" width="230" height="12" fill="#fff" opacity="0.09" rx="1"/>
    <rect x="300" y="674" width="310" height="2" fill="#fff" opacity="0.02" rx="0.5"/>
    <rect x="300" y="683" width="280" height="2" fill="#fff" opacity="0.02" rx="0.5"/>
    <rect x="300" y="692" width="300" height="2" fill="#fff" opacity="0.02" rx="0.5"/>
    <!-- CONFIDENTIAL -->
    <g transform="rotate(-15, 460, 770)">
      <rect x="360" y="752" width="210" height="34" fill="none" stroke="#ef4444" stroke-width="2" opacity="0.07" rx="2"/>
      <text x="374" y="776" font-family="monospace" font-size="14" fill="#ef4444" opacity="0.08" font-weight="bold" letter-spacing="3">CONFIDENTIAL</text>
    </g>
  </g>

  <!-- PAGE 6 — left edge -->
  <g transform="rotate(-2, 30, 680)">
    <rect x="-80" y="560" width="300" height="300" fill="#fff" opacity="0.007" rx="1"/>
    <rect x="-60" y="578" width="200" height="5" fill="#fff" opacity="0.035" rx="1"/>
    <rect x="-60" y="594" width="260" height="2" fill="#fff" opacity="0.018" rx="0.5"/>
    <rect x="-60" y="603" width="240" height="2" fill="#fff" opacity="0.018" rx="0.5"/>
    <rect x="-60" y="612" width="255" height="2" fill="#fff" opacity="0.018" rx="0.5"/>
    <!-- ██ REDACTED ██ -->
    <rect x="-60" y="630" width="200" height="12" fill="#fff" opacity="0.08" rx="1"/>
    <rect x="-60" y="652" width="250" height="2" fill="#fff" opacity="0.018" rx="0.5"/>
    <rect x="-60" y="661" width="235" height="2" fill="#fff" opacity="0.018" rx="0.5"/>
  </g>

  <!-- Case references -->
  <text x="150" y="550" font-family="monospace" font-size="8" fill="#fff" opacity="0.03">No. 08-80736-CIV</text>
  <text x="620" y="860" font-family="monospace" font-size="8" fill="#fff" opacity="0.03">SDNY 19-cr-00490</text>
  <text x="930" y="390" font-family="monospace" font-size="8" fill="#fff" opacity="0.03">Case 1:08-cv-01302</text>
</svg>
